<mxfile host="app.diagrams.net" modified="2024-02-02T08:30:25.635Z" agent="Mozilla/5.0 (Windows NT 10.0; Win64; x64) AppleWebKit/537.36 (KHTML, like Gecko) Chrome/121.0.0.0 Safari/537.36 Edg/121.0.0.0" version="23.0.1" etag="hdjSQlD7QqyLKC9-gL9Q" type="github">
  <diagram name="第 1 页" id="j_07Ym5FIF2X4ZPxHcAr">
    <mxGraphModel>
      <root>
        <mxCell id="0" />
        <mxCell id="1" parent="0" />
      </root>
    </mxGraphModel>
  </diagram>
</mxfile>
